<svg xmlns="http://www.w3.org/2000/svg" xmlns:xlink="http://www.w3.org/1999/xlink" width="600" zoomAndPan="magnify" viewBox="0 0 450 675.000002" height="900" preserveAspectRatio="xMidYMid meet" version="1.0"><defs><clipPath id="7138f296f6"><path d="M 0.332031 0 L 449.667969 0 L 449.667969 674 L 0.332031 674 Z M 0.332031 0 " clip-rule="nonzero"/></clipPath><clipPath id="5ea6d6f134"><path d="M 348 0 L 449.667969 0 L 449.667969 329 L 348 329 Z M 348 0 " clip-rule="nonzero"/></clipPath><clipPath id="09e833238e"><path d="M 0.332031 0 L 150 0 L 150 329 L 0.332031 329 Z M 0.332031 0 " clip-rule="nonzero"/></clipPath><clipPath id="556c7bb038"><path d="M 348 328 L 449.667969 328 L 449.667969 674 L 348 674 Z M 348 328 " clip-rule="nonzero"/></clipPath><clipPath id="521860446a"><path d="M 149 328 L 349 328 L 349 674 L 149 674 Z M 149 328 " clip-rule="nonzero"/></clipPath><clipPath id="95c33ba40d"><path d="M 0.332031 328 L 150 328 L 150 674 L 0.332031 674 Z M 0.332031 328 " clip-rule="nonzero"/></clipPath></defs><g clip-path="url(#7138f296f6)"><path fill="#ffffff" d="M 0.332031 0 L 449.667969 0 L 449.667969 674 L 0.332031 674 Z M 0.332031 0 " fill-opacity="1" fill-rule="nonzero"/><path fill="#ffffff" d="M 0.332031 0 L 449.667969 0 L 449.667969 674 L 0.332031 674 Z M 0.332031 0 " fill-opacity="1" fill-rule="nonzero"/></g><g clip-path="url(#5ea6d6f134)"><path fill="#000000" d="M 537.523438 13.738281 L 547.886719 19.726562 L 547.886719 -16.914062 L 525.925781 -16.914062 L 505.195312 -4.9375 L 515.558594 1.050781 L 537.523438 -11.640625 Z M 468.917969 283.78125 L 446.953125 271.09375 L 468.917969 258.40625 L 468.917969 246.429688 L 426.222656 271.09375 L 468.917969 295.757812 Z M 405.492188 271.09375 L 468.917969 234.453125 L 468.917969 222.476562 L 384.761719 271.09375 L 468.917969 319.714844 L 468.917969 307.738281 Z M 379.582031 238.15625 L 422.269531 213.492188 L 379.582031 188.828125 L 379.582031 200.804688 L 401.542969 213.492188 L 379.582031 226.179688 Z M 379.582031 176.847656 L 443.003906 213.492188 L 379.582031 250.132812 L 379.582031 262.109375 L 463.734375 213.492188 L 379.582031 164.871094 Z M 369.214844 146.90625 L 369.214844 134.929688 L 348.484375 122.953125 L 348.484375 134.929688 Z M 348.484375 164.871094 L 364.03125 155.890625 L 353.667969 149.902344 L 348.484375 152.894531 Z M 369.214844 262.109375 L 369.214844 164.871094 L 358.847656 170.863281 L 358.847656 244.144531 L 348.484375 238.15625 L 348.484375 250.132812 Z M 364.03125 271.09375 L 348.484375 262.109375 L 348.484375 274.089844 L 353.667969 277.082031 Z M 369.214844 328.695312 L 369.214844 280.074219 L 348.484375 292.054688 L 348.484375 304.03125 L 358.847656 298.042969 L 358.847656 328.695312 Z M 389.945312 328.695312 L 389.945312 286.0625 L 379.582031 280.074219 L 379.582031 328.695312 Z M 443.003906 316.71875 L 432.640625 310.730469 L 410.675781 323.417969 L 410.675781 298.042969 L 400.308594 292.054688 L 400.308594 328.695312 L 422.269531 328.695312 Z M 463.734375 328.695312 L 453.367188 322.707031 L 443.003906 328.695312 Z M 547.886719 316.007812 L 525.925781 328.695312 L 547.886719 328.695312 Z M 547.886719 292.054688 L 484.464844 328.695312 L 505.195312 328.695312 L 547.886719 304.03125 Z M 510.378906 276.371094 L 532.339844 289.058594 L 542.703125 283.070312 L 500.011719 258.40625 L 500.011719 307.738281 L 510.378906 301.746094 Z M 489.644531 240.441406 L 547.886719 274.089844 L 547.886719 262.109375 L 479.28125 222.476562 L 479.28125 319.714844 L 489.644531 313.726562 Z M 484.464844 213.492188 L 547.886719 250.132812 L 547.886719 238.15625 L 494.828125 207.503906 Z M 505.195312 201.515625 L 547.886719 226.179688 L 547.886719 176.847656 L 537.523438 182.839844 L 537.523438 208.214844 L 515.558594 195.527344 Z M 500.011719 168.578125 L 542.703125 143.914062 L 532.339844 137.925781 L 510.378906 150.613281 L 510.378906 125.234375 L 500.011719 119.246094 Z M 479.28125 204.507812 L 547.886719 164.871094 L 547.886719 152.894531 L 489.644531 186.542969 L 489.644531 113.257812 L 479.28125 107.269531 Z M 448.1875 192.53125 L 448.1875 143.203125 L 405.492188 167.867188 L 415.859375 173.855469 L 437.820312 161.167969 L 437.820312 186.542969 Z M 395.128906 161.878906 L 458.550781 125.234375 L 458.550781 198.519531 L 468.917969 204.507812 L 468.917969 107.269531 L 384.761719 155.890625 Z M 410.675781 103.566406 L 432.640625 116.253906 L 443.003906 110.265625 L 400.308594 85.601562 L 400.308594 134.929688 L 410.675781 128.941406 Z M 389.945312 67.632812 L 453.367188 104.277344 L 463.734375 98.289062 L 379.582031 49.667969 L 379.582031 146.90625 L 389.945312 140.917969 Z M 468.917969 89.304688 L 468.917969 -7.933594 L 458.550781 -1.945312 L 458.550781 71.339844 L 395.128906 34.699219 L 384.761719 40.6875 Z M 448.1875 53.375 L 448.1875 4.042969 L 437.820312 10.03125 L 437.820312 35.410156 L 415.859375 22.71875 L 405.492188 28.707031 Z M 400.308594 -4.226562 L 422.269531 -16.914062 L 400.308594 -16.914062 Z M 379.582031 31.703125 L 463.734375 -16.914062 L 443.003906 -16.914062 L 389.945312 13.738281 L 389.945312 -16.914062 L 379.582031 -16.914062 Z M 369.214844 31.703125 L 369.214844 -16.914062 L 358.847656 -16.914062 L 358.847656 25.714844 Z M 348.484375 49.667969 L 364.03125 40.6875 L 348.484375 31.703125 Z M 348.484375 73.621094 L 369.214844 61.644531 L 369.214844 49.667969 L 348.484375 61.644531 Z M 348.484375 97.578125 L 369.214844 85.601562 L 369.214844 73.621094 L 348.484375 85.601562 Z M 348.484375 110.976562 L 369.214844 122.953125 L 369.214844 110.976562 L 348.484375 99 Z M 525.925781 98.289062 L 547.886719 110.976562 L 547.886719 99 L 546.65625 98.289062 L 547.886719 97.578125 L 547.886719 85.601562 Z M 505.195312 98.289062 L 547.886719 73.621094 L 547.886719 61.644531 L 484.464844 98.289062 L 547.886719 134.929688 L 547.886719 122.953125 Z M 479.28125 65.351562 L 521.976562 40.6875 L 479.28125 16.019531 L 479.28125 27.996094 L 501.246094 40.6875 L 479.28125 53.375 Z M 479.28125 4.042969 L 542.703125 40.6875 L 479.28125 77.328125 L 479.28125 89.304688 L 547.886719 49.667969 L 547.886719 31.703125 L 479.28125 -7.933594 Z M 484.464844 -16.914062 L 494.828125 -10.929688 L 505.195312 -16.914062 Z M 484.464844 -16.914062 " fill-opacity="1" fill-rule="evenodd"/></g><path fill="#000000" d="M 338.117188 13.738281 L 348.484375 19.726562 L 348.484375 -16.914062 L 326.523438 -16.914062 L 305.789062 -4.9375 L 316.15625 1.050781 L 338.117188 -11.640625 Z M 269.511719 283.78125 L 247.550781 271.09375 L 269.511719 258.40625 L 269.511719 246.429688 L 226.820312 271.09375 L 269.511719 295.757812 Z M 206.089844 271.09375 L 269.511719 234.453125 L 269.511719 222.476562 L 185.359375 271.09375 L 269.511719 319.714844 L 269.511719 307.738281 Z M 180.175781 238.15625 L 222.867188 213.492188 L 180.175781 188.828125 L 180.175781 200.804688 L 202.136719 213.492188 L 180.175781 226.179688 Z M 180.175781 176.847656 L 243.597656 213.492188 L 180.175781 250.132812 L 180.175781 262.109375 L 264.332031 213.492188 L 180.175781 164.871094 Z M 169.808594 146.90625 L 169.808594 134.929688 L 149.078125 122.953125 L 149.078125 134.929688 Z M 149.078125 164.871094 L 164.625 155.890625 L 154.261719 149.902344 L 149.078125 152.894531 Z M 169.808594 262.109375 L 169.808594 164.871094 L 159.445312 170.863281 L 159.445312 244.144531 L 149.078125 238.15625 L 149.078125 250.132812 Z M 164.625 271.09375 L 149.078125 262.109375 L 149.078125 274.089844 L 154.261719 277.082031 Z M 169.808594 328.695312 L 169.808594 280.074219 L 149.078125 292.054688 L 149.078125 304.03125 L 159.445312 298.042969 L 159.445312 328.695312 Z M 190.539062 328.695312 L 190.539062 286.0625 L 180.175781 280.074219 L 180.175781 328.695312 Z M 243.597656 316.71875 L 233.234375 310.730469 L 211.273438 323.417969 L 211.273438 298.042969 L 200.90625 292.054688 L 200.90625 328.695312 L 222.867188 328.695312 Z M 264.332031 328.695312 L 253.964844 322.707031 L 243.597656 328.695312 Z M 348.484375 316.007812 L 326.523438 328.695312 L 348.484375 328.695312 Z M 348.484375 292.054688 L 285.058594 328.695312 L 305.789062 328.695312 L 348.484375 304.03125 Z M 310.972656 276.371094 L 332.933594 289.058594 L 343.300781 283.070312 L 300.609375 258.40625 L 300.609375 307.738281 L 310.972656 301.746094 Z M 290.246094 240.441406 L 348.484375 274.089844 L 348.484375 262.109375 L 279.875 222.476562 L 279.875 319.714844 L 290.246094 313.726562 Z M 285.058594 213.492188 L 348.484375 250.132812 L 348.484375 238.15625 L 295.425781 207.503906 Z M 305.789062 201.515625 L 348.484375 226.179688 L 348.484375 176.847656 L 338.117188 182.839844 L 338.117188 208.214844 L 316.15625 195.527344 Z M 300.609375 168.578125 L 343.300781 143.914062 L 332.933594 137.925781 L 310.972656 150.613281 L 310.972656 125.234375 L 300.609375 119.246094 Z M 279.875 204.507812 L 348.484375 164.871094 L 348.484375 152.894531 L 290.246094 186.542969 L 290.246094 113.257812 L 279.875 107.269531 Z M 248.78125 192.53125 L 248.78125 143.203125 L 206.089844 167.867188 L 216.453125 173.855469 L 238.414062 161.167969 L 238.414062 186.542969 Z M 195.722656 161.878906 L 259.148438 125.234375 L 259.148438 198.519531 L 269.511719 204.507812 L 269.511719 107.269531 L 185.359375 155.890625 Z M 211.273438 103.566406 L 233.234375 116.253906 L 243.597656 110.265625 L 200.90625 85.601562 L 200.90625 134.929688 L 211.273438 128.941406 Z M 190.539062 67.632812 L 253.964844 104.277344 L 264.332031 98.289062 L 180.175781 49.667969 L 180.175781 146.90625 L 190.539062 140.917969 Z M 269.511719 89.304688 L 269.511719 -7.933594 L 259.148438 -1.945312 L 259.148438 71.339844 L 195.722656 34.699219 L 185.359375 40.6875 Z M 248.78125 53.375 L 248.78125 4.042969 L 238.414062 10.03125 L 238.414062 35.410156 L 216.453125 22.71875 L 206.089844 28.707031 Z M 200.90625 -4.226562 L 222.867188 -16.914062 L 200.90625 -16.914062 Z M 180.175781 31.703125 L 264.332031 -16.914062 L 243.597656 -16.914062 L 190.539062 13.738281 L 190.539062 -16.914062 L 180.175781 -16.914062 Z M 169.808594 31.703125 L 169.808594 -16.914062 L 159.445312 -16.914062 L 159.445312 25.714844 Z M 149.078125 49.667969 L 164.625 40.6875 L 149.078125 31.703125 Z M 149.078125 73.621094 L 169.808594 61.644531 L 169.808594 49.667969 L 149.078125 61.644531 Z M 149.078125 97.578125 L 169.808594 85.601562 L 169.808594 73.621094 L 149.078125 85.601562 Z M 149.078125 110.976562 L 169.808594 122.953125 L 169.808594 110.976562 L 149.078125 99 Z M 326.523438 98.289062 L 348.484375 110.976562 L 348.484375 99 L 347.25 98.289062 L 348.484375 97.578125 L 348.484375 85.601562 Z M 305.789062 98.289062 L 348.484375 73.621094 L 348.484375 61.644531 L 285.058594 98.289062 L 348.484375 134.929688 L 348.484375 122.953125 Z M 279.875 65.351562 L 322.570312 40.6875 L 279.875 16.019531 L 279.875 27.996094 L 301.839844 40.6875 L 279.875 53.375 Z M 279.875 4.042969 L 343.300781 40.6875 L 279.875 77.328125 L 279.875 89.304688 L 348.484375 49.667969 L 348.484375 31.703125 L 279.875 -7.933594 Z M 285.058594 -16.914062 L 295.425781 -10.929688 L 305.789062 -16.914062 Z M 285.058594 -16.914062 " fill-opacity="1" fill-rule="evenodd"/><g clip-path="url(#09e833238e)"><path fill="#000000" d="M 138.714844 13.738281 L 149.078125 19.726562 L 149.078125 -16.914062 L 127.117188 -16.914062 L 106.386719 -4.9375 L 116.75 1.050781 L 138.714844 -11.640625 Z M 70.109375 283.78125 L 48.144531 271.09375 L 70.109375 258.40625 L 70.109375 246.429688 L 27.414062 271.09375 L 70.109375 295.757812 Z M 6.683594 271.09375 L 70.109375 234.453125 L 70.109375 222.476562 L -14.046875 271.09375 L 70.109375 319.714844 L 70.109375 307.738281 Z M -19.230469 238.15625 L 23.464844 213.492188 L -19.230469 188.828125 L -19.230469 200.804688 L 2.734375 213.492188 L -19.230469 226.179688 Z M -19.230469 176.847656 L 44.195312 213.492188 L -19.230469 250.132812 L -19.230469 262.109375 L 64.925781 213.492188 L -19.230469 164.871094 Z M -29.59375 146.90625 L -29.59375 134.929688 L -50.324219 122.953125 L -50.324219 134.929688 Z M -50.324219 164.871094 L -34.777344 155.890625 L -45.140625 149.902344 L -50.324219 152.894531 Z M -29.59375 262.109375 L -29.59375 164.871094 L -39.960938 170.863281 L -39.960938 244.144531 L -50.324219 238.15625 L -50.324219 250.132812 Z M -34.777344 271.09375 L -50.324219 262.109375 L -50.324219 274.089844 L -45.140625 277.082031 Z M -29.59375 328.695312 L -29.59375 280.074219 L -50.324219 292.054688 L -50.324219 304.03125 L -39.960938 298.042969 L -39.960938 328.695312 Z M -8.863281 328.695312 L -8.863281 286.0625 L -19.230469 280.074219 L -19.230469 328.695312 Z M 44.195312 316.71875 L 33.828125 310.730469 L 11.867188 323.417969 L 11.867188 298.042969 L 1.503906 292.054688 L 1.503906 328.695312 L 23.464844 328.695312 Z M 64.925781 328.695312 L 54.558594 322.707031 L 44.195312 328.695312 Z M 149.078125 316.007812 L 127.117188 328.695312 L 149.078125 328.695312 Z M 149.078125 292.054688 L 85.65625 328.695312 L 106.386719 328.695312 L 149.078125 304.03125 Z M 111.570312 276.371094 L 133.53125 289.058594 L 143.894531 283.070312 L 101.203125 258.40625 L 101.203125 307.738281 L 111.570312 301.746094 Z M 90.839844 240.441406 L 149.078125 274.089844 L 149.078125 262.109375 L 80.472656 222.476562 L 80.472656 319.714844 L 90.839844 313.726562 Z M 85.65625 213.492188 L 149.078125 250.132812 L 149.078125 238.15625 L 96.019531 207.503906 Z M 106.386719 201.515625 L 149.078125 226.179688 L 149.078125 176.847656 L 138.714844 182.839844 L 138.714844 208.214844 L 116.75 195.527344 Z M 101.203125 168.578125 L 143.894531 143.914062 L 133.53125 137.925781 L 111.570312 150.613281 L 111.570312 125.234375 L 101.203125 119.246094 Z M 80.472656 204.507812 L 149.078125 164.871094 L 149.078125 152.894531 L 90.839844 186.542969 L 90.839844 113.257812 L 80.472656 107.269531 Z M 49.378906 192.53125 L 49.378906 143.203125 L 6.683594 167.867188 L 17.050781 173.855469 L 39.011719 161.167969 L 39.011719 186.542969 Z M -3.679688 161.878906 L 59.742188 125.234375 L 59.742188 198.519531 L 70.109375 204.507812 L 70.109375 107.269531 L -14.046875 155.890625 Z M 11.867188 103.566406 L 33.828125 116.253906 L 44.195312 110.265625 L 1.503906 85.601562 L 1.503906 134.929688 L 11.867188 128.941406 Z M -8.863281 67.632812 L 54.558594 104.277344 L 64.925781 98.289062 L -19.230469 49.667969 L -19.230469 146.90625 L -8.863281 140.917969 Z M 70.109375 89.304688 L 70.109375 -7.933594 L 59.742188 -1.945312 L 59.742188 71.339844 L -3.679688 34.699219 L -14.046875 40.6875 Z M 49.378906 53.375 L 49.378906 4.042969 L 39.011719 10.03125 L 39.011719 35.410156 L 17.050781 22.71875 L 6.683594 28.707031 Z M 1.503906 -4.226562 L 23.464844 -16.914062 L 1.503906 -16.914062 Z M -19.230469 31.703125 L 64.925781 -16.914062 L 44.195312 -16.914062 L -8.863281 13.738281 L -8.863281 -16.914062 L -19.230469 -16.914062 Z M -29.59375 31.703125 L -29.59375 -16.914062 L -39.960938 -16.914062 L -39.960938 25.714844 Z M -50.324219 49.667969 L -34.777344 40.6875 L -50.324219 31.703125 Z M -50.324219 73.621094 L -29.59375 61.644531 L -29.59375 49.667969 L -50.324219 61.644531 Z M -50.324219 97.578125 L -29.59375 85.601562 L -29.59375 73.621094 L -50.324219 85.601562 Z M -50.324219 110.976562 L -29.59375 122.953125 L -29.59375 110.976562 L -50.324219 99 Z M 127.117188 98.289062 L 149.078125 110.976562 L 149.078125 99 L 147.847656 98.289062 L 149.078125 97.578125 L 149.078125 85.601562 Z M 106.386719 98.289062 L 149.078125 73.621094 L 149.078125 61.644531 L 85.65625 98.289062 L 149.078125 134.929688 L 149.078125 122.953125 Z M 80.472656 65.351562 L 123.164062 40.6875 L 80.472656 16.019531 L 80.472656 27.996094 L 102.433594 40.6875 L 80.472656 53.375 Z M 80.472656 4.042969 L 143.894531 40.6875 L 80.472656 77.328125 L 80.472656 89.304688 L 149.078125 49.667969 L 149.078125 31.703125 L 80.472656 -7.933594 Z M 85.65625 -16.914062 L 96.019531 -10.929688 L 106.386719 -16.914062 Z M 85.65625 -16.914062 " fill-opacity="1" fill-rule="evenodd"/></g><g clip-path="url(#556c7bb038)"><path fill="#000000" d="M 537.523438 359.347656 L 547.886719 365.335938 L 547.886719 328.695312 L 525.925781 328.695312 L 505.195312 340.671875 L 515.558594 346.660156 L 537.523438 333.972656 Z M 468.917969 629.390625 L 446.953125 616.703125 L 468.917969 604.019531 L 468.917969 592.039062 L 426.222656 616.703125 L 468.917969 641.371094 Z M 405.492188 616.703125 L 468.917969 580.0625 L 468.917969 568.085938 L 384.761719 616.703125 L 468.917969 665.324219 L 468.917969 653.347656 Z M 379.582031 583.769531 L 422.269531 559.105469 L 379.582031 534.4375 L 379.582031 546.417969 L 401.542969 559.105469 L 379.582031 571.792969 Z M 379.582031 522.460938 L 443.003906 559.105469 L 379.582031 595.746094 L 379.582031 607.722656 L 463.734375 559.105469 L 379.582031 510.484375 Z M 369.214844 492.519531 L 369.214844 480.542969 L 348.484375 468.5625 L 348.484375 480.542969 Z M 348.484375 510.484375 L 364.03125 501.503906 L 353.667969 495.511719 L 348.484375 498.507812 Z M 369.214844 607.722656 L 369.214844 510.484375 L 358.847656 516.472656 L 358.847656 589.757812 L 348.484375 583.769531 L 348.484375 595.746094 Z M 364.03125 616.703125 L 348.484375 607.722656 L 348.484375 619.699219 L 353.667969 622.695312 Z M 369.214844 674.308594 L 369.214844 625.6875 L 348.484375 637.664062 L 348.484375 649.640625 L 358.847656 643.652344 L 358.847656 674.308594 Z M 389.945312 674.308594 L 389.945312 631.675781 L 379.582031 625.6875 L 379.582031 674.308594 Z M 443.003906 662.332031 L 432.640625 656.34375 L 410.675781 669.03125 L 410.675781 643.652344 L 400.308594 637.664062 L 400.308594 674.308594 L 422.269531 674.308594 Z M 463.734375 674.308594 L 453.367188 668.320312 L 443.003906 674.308594 Z M 547.886719 661.621094 L 525.925781 674.308594 L 547.886719 674.308594 Z M 547.886719 637.664062 L 484.464844 674.308594 L 505.195312 674.308594 L 547.886719 649.640625 Z M 510.378906 621.980469 L 532.339844 634.671875 L 542.703125 628.679688 L 500.011719 604.019531 L 500.011719 653.347656 L 510.378906 647.359375 Z M 489.644531 586.050781 L 547.886719 619.699219 L 547.886719 607.722656 L 479.28125 568.085938 L 479.28125 665.324219 L 489.644531 659.335938 Z M 484.464844 559.105469 L 547.886719 595.746094 L 547.886719 583.769531 L 494.828125 553.117188 Z M 505.195312 547.128906 L 547.886719 571.792969 L 547.886719 522.460938 L 537.523438 528.449219 L 537.523438 553.828125 L 515.558594 541.136719 Z M 500.011719 514.1875 L 542.703125 489.523438 L 532.339844 483.535156 L 510.378906 496.226562 L 510.378906 470.847656 L 500.011719 464.859375 Z M 479.28125 550.121094 L 547.886719 510.484375 L 547.886719 498.507812 L 489.644531 532.15625 L 489.644531 458.871094 L 479.28125 452.878906 Z M 448.1875 538.144531 L 448.1875 488.8125 L 405.492188 513.476562 L 415.859375 519.464844 L 437.820312 506.777344 L 437.820312 532.15625 Z M 395.128906 507.488281 L 458.550781 470.847656 L 458.550781 544.132812 L 468.917969 550.121094 L 468.917969 452.878906 L 384.761719 501.503906 Z M 410.675781 449.175781 L 432.640625 461.863281 L 443.003906 455.875 L 400.308594 431.210938 L 400.308594 480.542969 L 410.675781 474.554688 Z M 389.945312 413.246094 L 453.367188 449.886719 L 463.734375 443.898438 L 379.582031 395.28125 L 379.582031 492.519531 L 389.945312 486.53125 Z M 468.917969 434.917969 L 468.917969 337.675781 L 458.550781 343.667969 L 458.550781 416.953125 L 395.128906 380.308594 L 384.761719 386.300781 Z M 448.1875 398.984375 L 448.1875 349.65625 L 437.820312 355.644531 L 437.820312 381.019531 L 415.859375 368.332031 L 405.492188 374.320312 Z M 400.308594 341.382812 L 422.269531 328.695312 L 400.308594 328.695312 Z M 379.582031 377.316406 L 463.734375 328.695312 L 443.003906 328.695312 L 389.945312 359.347656 L 389.945312 328.695312 L 379.582031 328.695312 Z M 369.214844 377.316406 L 369.214844 328.695312 L 358.847656 328.695312 L 358.847656 371.328125 Z M 348.484375 395.28125 L 364.03125 386.300781 L 348.484375 377.316406 Z M 348.484375 419.234375 L 369.214844 407.257812 L 369.214844 395.28125 L 348.484375 407.257812 Z M 348.484375 443.1875 L 369.214844 431.210938 L 369.214844 419.234375 L 348.484375 431.210938 Z M 348.484375 456.585938 L 369.214844 468.5625 L 369.214844 456.585938 L 348.484375 444.609375 Z M 525.925781 443.898438 L 547.886719 456.585938 L 547.886719 444.609375 L 546.65625 443.898438 L 547.886719 443.1875 L 547.886719 431.210938 Z M 505.195312 443.898438 L 547.886719 419.234375 L 547.886719 407.257812 L 484.464844 443.898438 L 547.886719 480.542969 L 547.886719 468.5625 Z M 479.28125 410.960938 L 521.976562 386.300781 L 479.28125 361.632812 L 479.28125 373.609375 L 501.246094 386.300781 L 479.28125 398.984375 Z M 479.28125 349.65625 L 542.703125 386.300781 L 479.28125 422.941406 L 479.28125 434.917969 L 547.886719 395.28125 L 547.886719 377.316406 L 479.28125 337.675781 Z M 484.464844 328.695312 L 494.828125 334.683594 L 505.195312 328.695312 Z M 484.464844 328.695312 " fill-opacity="1" fill-rule="evenodd"/></g><g clip-path="url(#521860446a)"><path fill="#000000" d="M 338.117188 359.347656 L 348.484375 365.335938 L 348.484375 328.695312 L 326.523438 328.695312 L 305.789062 340.671875 L 316.15625 346.660156 L 338.117188 333.972656 Z M 269.511719 629.390625 L 247.550781 616.703125 L 269.511719 604.019531 L 269.511719 592.039062 L 226.820312 616.703125 L 269.511719 641.371094 Z M 206.089844 616.703125 L 269.511719 580.0625 L 269.511719 568.085938 L 185.359375 616.703125 L 269.511719 665.324219 L 269.511719 653.347656 Z M 180.175781 583.769531 L 222.867188 559.105469 L 180.175781 534.4375 L 180.175781 546.417969 L 202.136719 559.105469 L 180.175781 571.792969 Z M 180.175781 522.460938 L 243.597656 559.105469 L 180.175781 595.746094 L 180.175781 607.722656 L 264.332031 559.105469 L 180.175781 510.484375 Z M 169.808594 492.519531 L 169.808594 480.542969 L 149.078125 468.5625 L 149.078125 480.542969 Z M 149.078125 510.484375 L 164.625 501.503906 L 154.261719 495.511719 L 149.078125 498.507812 Z M 169.808594 607.722656 L 169.808594 510.484375 L 159.445312 516.472656 L 159.445312 589.757812 L 149.078125 583.769531 L 149.078125 595.746094 Z M 164.625 616.703125 L 149.078125 607.722656 L 149.078125 619.699219 L 154.261719 622.695312 Z M 169.808594 674.308594 L 169.808594 625.6875 L 149.078125 637.664062 L 149.078125 649.640625 L 159.445312 643.652344 L 159.445312 674.308594 Z M 190.539062 674.308594 L 190.539062 631.675781 L 180.175781 625.6875 L 180.175781 674.308594 Z M 243.597656 662.332031 L 233.234375 656.34375 L 211.273438 669.03125 L 211.273438 643.652344 L 200.90625 637.664062 L 200.90625 674.308594 L 222.867188 674.308594 Z M 264.332031 674.308594 L 253.964844 668.320312 L 243.597656 674.308594 Z M 348.484375 661.621094 L 326.523438 674.308594 L 348.484375 674.308594 Z M 348.484375 637.664062 L 285.058594 674.308594 L 305.789062 674.308594 L 348.484375 649.640625 Z M 310.972656 621.980469 L 332.933594 634.671875 L 343.300781 628.679688 L 300.609375 604.019531 L 300.609375 653.347656 L 310.972656 647.359375 Z M 290.246094 586.050781 L 348.484375 619.699219 L 348.484375 607.722656 L 279.875 568.085938 L 279.875 665.324219 L 290.246094 659.335938 Z M 285.058594 559.105469 L 348.484375 595.746094 L 348.484375 583.769531 L 295.425781 553.117188 Z M 305.789062 547.128906 L 348.484375 571.792969 L 348.484375 522.460938 L 338.117188 528.449219 L 338.117188 553.828125 L 316.15625 541.136719 Z M 300.609375 514.1875 L 343.300781 489.523438 L 332.933594 483.535156 L 310.972656 496.226562 L 310.972656 470.847656 L 300.609375 464.859375 Z M 279.875 550.121094 L 348.484375 510.484375 L 348.484375 498.507812 L 290.246094 532.15625 L 290.246094 458.871094 L 279.875 452.878906 Z M 248.78125 538.144531 L 248.78125 488.8125 L 206.089844 513.476562 L 216.453125 519.464844 L 238.414062 506.777344 L 238.414062 532.15625 Z M 195.722656 507.488281 L 259.148438 470.847656 L 259.148438 544.132812 L 269.511719 550.121094 L 269.511719 452.878906 L 185.359375 501.503906 Z M 211.273438 449.175781 L 233.234375 461.863281 L 243.597656 455.875 L 200.90625 431.210938 L 200.90625 480.542969 L 211.273438 474.554688 Z M 190.539062 413.246094 L 253.964844 449.886719 L 264.332031 443.898438 L 180.175781 395.28125 L 180.175781 492.519531 L 190.539062 486.53125 Z M 269.511719 434.917969 L 269.511719 337.675781 L 259.148438 343.667969 L 259.148438 416.953125 L 195.722656 380.308594 L 185.359375 386.300781 Z M 248.78125 398.984375 L 248.78125 349.65625 L 238.414062 355.644531 L 238.414062 381.019531 L 216.453125 368.332031 L 206.089844 374.320312 Z M 200.90625 341.382812 L 222.867188 328.695312 L 200.90625 328.695312 Z M 180.175781 377.316406 L 264.332031 328.695312 L 243.597656 328.695312 L 190.539062 359.347656 L 190.539062 328.695312 L 180.175781 328.695312 Z M 169.808594 377.316406 L 169.808594 328.695312 L 159.445312 328.695312 L 159.445312 371.328125 Z M 149.078125 395.28125 L 164.625 386.300781 L 149.078125 377.316406 Z M 149.078125 419.234375 L 169.808594 407.257812 L 169.808594 395.28125 L 149.078125 407.257812 Z M 149.078125 443.1875 L 169.808594 431.210938 L 169.808594 419.234375 L 149.078125 431.210938 Z M 149.078125 456.585938 L 169.808594 468.5625 L 169.808594 456.585938 L 149.078125 444.609375 Z M 326.523438 443.898438 L 348.484375 456.585938 L 348.484375 444.609375 L 347.25 443.898438 L 348.484375 443.1875 L 348.484375 431.210938 Z M 305.789062 443.898438 L 348.484375 419.234375 L 348.484375 407.257812 L 285.058594 443.898438 L 348.484375 480.542969 L 348.484375 468.5625 Z M 279.875 410.960938 L 322.570312 386.300781 L 279.875 361.632812 L 279.875 373.609375 L 301.839844 386.300781 L 279.875 398.984375 Z M 279.875 349.65625 L 343.300781 386.300781 L 279.875 422.941406 L 279.875 434.917969 L 348.484375 395.28125 L 348.484375 377.316406 L 279.875 337.675781 Z M 285.058594 328.695312 L 295.425781 334.683594 L 305.789062 328.695312 Z M 285.058594 328.695312 " fill-opacity="1" fill-rule="evenodd"/></g><g clip-path="url(#95c33ba40d)"><path fill="#000000" d="M 138.714844 359.347656 L 149.078125 365.335938 L 149.078125 328.695312 L 127.117188 328.695312 L 106.386719 340.671875 L 116.75 346.660156 L 138.714844 333.972656 Z M 70.109375 629.390625 L 48.144531 616.703125 L 70.109375 604.019531 L 70.109375 592.039062 L 27.414062 616.703125 L 70.109375 641.371094 Z M 6.683594 616.703125 L 70.109375 580.0625 L 70.109375 568.085938 L -14.046875 616.703125 L 70.109375 665.324219 L 70.109375 653.347656 Z M -19.230469 583.769531 L 23.464844 559.105469 L -19.230469 534.4375 L -19.230469 546.417969 L 2.734375 559.105469 L -19.230469 571.792969 Z M -19.230469 522.460938 L 44.195312 559.105469 L -19.230469 595.746094 L -19.230469 607.722656 L 64.925781 559.105469 L -19.230469 510.484375 Z M -29.59375 492.519531 L -29.59375 480.542969 L -50.324219 468.5625 L -50.324219 480.542969 Z M -50.324219 510.484375 L -34.777344 501.503906 L -45.140625 495.511719 L -50.324219 498.507812 Z M -29.59375 607.722656 L -29.59375 510.484375 L -39.960938 516.472656 L -39.960938 589.757812 L -50.324219 583.769531 L -50.324219 595.746094 Z M -34.777344 616.703125 L -50.324219 607.722656 L -50.324219 619.699219 L -45.140625 622.695312 Z M -29.59375 674.308594 L -29.59375 625.6875 L -50.324219 637.664062 L -50.324219 649.640625 L -39.960938 643.652344 L -39.960938 674.308594 Z M -8.863281 674.308594 L -8.863281 631.675781 L -19.230469 625.6875 L -19.230469 674.308594 Z M 44.195312 662.332031 L 33.828125 656.34375 L 11.867188 669.03125 L 11.867188 643.652344 L 1.503906 637.664062 L 1.503906 674.308594 L 23.464844 674.308594 Z M 64.925781 674.308594 L 54.558594 668.320312 L 44.195312 674.308594 Z M 149.078125 661.621094 L 127.117188 674.308594 L 149.078125 674.308594 Z M 149.078125 637.664062 L 85.65625 674.308594 L 106.386719 674.308594 L 149.078125 649.640625 Z M 111.570312 621.980469 L 133.53125 634.671875 L 143.894531 628.679688 L 101.203125 604.019531 L 101.203125 653.347656 L 111.570312 647.359375 Z M 90.839844 586.050781 L 149.078125 619.699219 L 149.078125 607.722656 L 80.472656 568.085938 L 80.472656 665.324219 L 90.839844 659.335938 Z M 85.65625 559.105469 L 149.078125 595.746094 L 149.078125 583.769531 L 96.019531 553.117188 Z M 106.386719 547.128906 L 149.078125 571.792969 L 149.078125 522.460938 L 138.714844 528.449219 L 138.714844 553.828125 L 116.75 541.136719 Z M 101.203125 514.1875 L 143.894531 489.523438 L 133.53125 483.535156 L 111.570312 496.226562 L 111.570312 470.847656 L 101.203125 464.859375 Z M 80.472656 550.121094 L 149.078125 510.484375 L 149.078125 498.507812 L 90.839844 532.15625 L 90.839844 458.871094 L 80.472656 452.878906 Z M 49.378906 538.144531 L 49.378906 488.8125 L 6.683594 513.476562 L 17.050781 519.464844 L 39.011719 506.777344 L 39.011719 532.15625 Z M -3.679688 507.488281 L 59.742188 470.847656 L 59.742188 544.132812 L 70.109375 550.121094 L 70.109375 452.878906 L -14.046875 501.503906 Z M 11.867188 449.175781 L 33.828125 461.863281 L 44.195312 455.875 L 1.503906 431.210938 L 1.503906 480.542969 L 11.867188 474.554688 Z M -8.863281 413.246094 L 54.558594 449.886719 L 64.925781 443.898438 L -19.230469 395.28125 L -19.230469 492.519531 L -8.863281 486.53125 Z M 70.109375 434.917969 L 70.109375 337.675781 L 59.742188 343.667969 L 59.742188 416.953125 L -3.679688 380.308594 L -14.046875 386.300781 Z M 49.378906 398.984375 L 49.378906 349.65625 L 39.011719 355.644531 L 39.011719 381.019531 L 17.050781 368.332031 L 6.683594 374.320312 Z M 1.503906 341.382812 L 23.464844 328.695312 L 1.503906 328.695312 Z M -19.230469 377.316406 L 64.925781 328.695312 L 44.195312 328.695312 L -8.863281 359.347656 L -8.863281 328.695312 L -19.230469 328.695312 Z M -29.59375 377.316406 L -29.59375 328.695312 L -39.960938 328.695312 L -39.960938 371.328125 Z M -50.324219 395.28125 L -34.777344 386.300781 L -50.324219 377.316406 Z M -50.324219 419.234375 L -29.59375 407.257812 L -29.59375 395.28125 L -50.324219 407.257812 Z M -50.324219 443.1875 L -29.59375 431.210938 L -29.59375 419.234375 L -50.324219 431.210938 Z M -50.324219 456.585938 L -29.59375 468.5625 L -29.59375 456.585938 L -50.324219 444.609375 Z M 127.117188 443.898438 L 149.078125 456.585938 L 149.078125 444.609375 L 147.847656 443.898438 L 149.078125 443.1875 L 149.078125 431.210938 Z M 106.386719 443.898438 L 149.078125 419.234375 L 149.078125 407.257812 L 85.65625 443.898438 L 149.078125 480.542969 L 149.078125 468.5625 Z M 80.472656 410.960938 L 123.164062 386.300781 L 80.472656 361.632812 L 80.472656 373.609375 L 102.433594 386.300781 L 80.472656 398.984375 Z M 80.472656 349.65625 L 143.894531 386.300781 L 80.472656 422.941406 L 80.472656 434.917969 L 149.078125 395.28125 L 149.078125 377.316406 L 80.472656 337.675781 Z M 85.65625 328.695312 L 96.019531 334.683594 L 106.386719 328.695312 Z M 85.65625 328.695312 " fill-opacity="1" fill-rule="evenodd"/></g></svg>