<svg xmlns="http://www.w3.org/2000/svg" xmlns:xlink="http://www.w3.org/1999/xlink" width="600" zoomAndPan="magnify" viewBox="0 0 450 675.000002" height="900" preserveAspectRatio="xMidYMid meet" version="1.0"><defs><clipPath id="edb30c2190"><path d="M 0.332031 0 L 449.667969 0 L 449.667969 674 L 0.332031 674 Z M 0.332031 0 " clip-rule="nonzero"/></clipPath><clipPath id="df4ab4f6a5"><path d="M 0.332031 10 L 449.667969 10 L 449.667969 664 L 0.332031 664 Z M 0.332031 10 " clip-rule="nonzero"/></clipPath><clipPath id="d4bdcef230"><path d="M 0.332031 33 L 449.667969 33 L 449.667969 641 L 0.332031 641 Z M 0.332031 33 " clip-rule="nonzero"/></clipPath><clipPath id="c84aefc57f"><path d="M 0.332031 56 L 449.667969 56 L 449.667969 618 L 0.332031 618 Z M 0.332031 56 " clip-rule="nonzero"/></clipPath><clipPath id="b483212158"><path d="M 0.332031 80 L 449.667969 80 L 449.667969 594 L 0.332031 594 Z M 0.332031 80 " clip-rule="nonzero"/></clipPath><clipPath id="de9fd3b69a"><path d="M 0.332031 103 L 449.667969 103 L 449.667969 571 L 0.332031 571 Z M 0.332031 103 " clip-rule="nonzero"/></clipPath></defs><g clip-path="url(#edb30c2190)"><path fill="#ffffff" d="M 0.332031 0 L 449.667969 0 L 449.667969 674 L 0.332031 674 Z M 0.332031 0 " fill-opacity="1" fill-rule="nonzero"/><path fill="#ffffff" d="M 0.332031 0 L 449.667969 0 L 449.667969 674 L 0.332031 674 Z M 0.332031 0 " fill-opacity="1" fill-rule="nonzero"/><rect x="-45" width="540" fill="#ffffff" y="-67.5" height="810.000002" fill-opacity="1"/><path fill="#000000" d="M 585.261719 698.742188 C 313.992188 698.242188 104.03125 667.089844 -136.578125 697.238281 C -136.078125 425.972656 -104.925781 216.011719 -135.074219 -24.605469 C 136.191406 -24.105469 346.152344 7.054688 586.769531 -23.097656 C 586.265625 248.171875 555.109375 458.132812 585.261719 698.742188 Z M -148.230469 -36.253906 C -148.230469 212.632812 -148.230469 461.511719 -148.230469 710.394531 C 100.652344 710.394531 349.535156 710.394531 598.414062 710.394531 C 598.417969 461.511719 598.414062 212.632812 598.414062 -36.253906 C 349.53125 -36.253906 100.652344 -36.253906 -148.230469 -36.253906 " fill-opacity="1" fill-rule="nonzero"/><path fill="#000000" d="M 551.589844 675.449219 C 257.039062 671.484375 108.339844 594.605469 -113.285156 663.566406 C -109.324219 369.019531 -32.441406 220.320312 -101.40625 -1.308594 C 193.144531 2.652344 341.84375 79.539062 563.472656 10.574219 C 559.511719 305.125 482.625 453.824219 551.589844 675.449219 Z M 575.117188 -7.3125 C 343.652344 45.5 166.871094 -11.074219 -119.292969 -12.953125 C -66.480469 218.511719 -123.054688 395.292969 -124.933594 681.457031 C 106.539062 628.644531 283.3125 685.214844 569.476562 687.097656 C 516.664062 455.625 573.238281 278.851562 575.117188 -7.3125 " fill-opacity="1" fill-rule="nonzero"/></g><g clip-path="url(#df4ab4f6a5)"><path fill="#000000" d="M 511.425781 652.152344 C 216.042969 642.566406 110.484375 538.070312 -89.988281 623.402344 C -80.402344 328.015625 24.09375 222.460938 -61.238281 21.992188 C 234.148438 31.570312 339.707031 136.066406 540.171875 50.738281 C 530.589844 346.121094 426.09375 451.679688 511.425781 652.152344 Z M 551.820312 30.074219 C 340.578125 109.59375 215.441406 16.917969 -81.90625 10.34375 C -2.378906 221.585938 -95.058594 346.726562 -101.632812 644.070312 C 109.605469 564.542969 234.75 657.222656 532.089844 663.800781 C 452.570312 452.554688 545.246094 327.414062 551.820312 30.074219 " fill-opacity="1" fill-rule="nonzero"/></g><g clip-path="url(#d4bdcef230)"><path fill="#000000" d="M 468.164062 628.851562 C 187.925781 612.617188 111.597656 494.421875 -66.691406 580.144531 C -50.453125 299.902344 67.742188 223.574219 -17.980469 45.289062 C 262.261719 61.527344 338.589844 179.71875 516.875 93.996094 C 500.640625 374.238281 382.445312 450.570312 468.164062 628.851562 Z M 528.527344 72.167969 C 339.078125 159.332031 249.640625 46.484375 -39.808594 33.636719 C 47.351562 223.082031 -65.496094 312.523438 -78.335938 601.972656 C 111.105469 514.8125 200.546875 627.660156 489.992188 640.5 C 402.832031 451.058594 515.679688 361.617188 528.527344 72.167969 " fill-opacity="1" fill-rule="nonzero"/></g><g clip-path="url(#c84aefc57f)"><path fill="#000000" d="M 424.585938 605.554688 C 170.042969 582.5625 112.597656 461.011719 -43.390625 536.5625 C -20.394531 282.019531 101.152344 224.578125 25.597656 68.585938 C 280.144531 91.582031 337.585938 213.132812 493.582031 137.578125 C 470.582031 392.121094 349.03125 449.5625 424.585938 605.554688 Z M 505.230469 115.894531 C 338.121094 197.554688 272.332031 76.589844 3.921875 56.933594 C 85.578125 224.039062 -35.386719 289.828125 -55.042969 558.242188 C 112.0625 476.585938 177.855469 597.550781 446.269531 617.207031 C 364.613281 450.101562 485.574219 384.3125 505.230469 115.894531 " fill-opacity="1" fill-rule="nonzero"/></g><g clip-path="url(#b483212158)"><path fill="#000000" d="M 382.871094 582.257812 C 160.140625 553.121094 114.226562 435.578125 -20.09375 494.847656 C 9.042969 272.117188 126.585938 226.207031 67.316406 91.882812 C 290.046875 121.015625 335.957031 238.5625 470.28125 179.292969 C 441.144531 402.023438 323.601562 447.9375 382.871094 582.257812 Z M 481.929688 158.78125 C 336.890625 226.71875 285.964844 106.417969 46.804688 80.234375 C 114.742188 225.273438 -5.5625 276.199219 -31.746094 515.363281 C 113.296875 447.421875 164.222656 567.726562 403.382812 593.910156 C 335.445312 448.867188 455.746094 397.941406 481.929688 158.78125 " fill-opacity="1" fill-rule="nonzero"/></g><g clip-path="url(#de9fd3b69a)"><path fill="#000000" d="M 344.664062 558.964844 C 156.324219 524.855469 117.019531 416.226562 3.199219 456.644531 C 37.308594 268.296875 145.9375 229 105.519531 115.179688 C 293.867188 149.285156 333.164062 257.914062 446.984375 217.5 C 412.878906 405.839844 304.25 445.140625 344.664062 558.964844 Z M 458.632812 198.914062 C 334.734375 248.894531 292.609375 135.328125 86.9375 103.53125 C 136.914062 227.429688 23.347656 269.550781 -8.449219 475.226562 C 115.449219 425.25 157.574219 538.816406 363.246094 570.609375 C 313.269531 446.714844 426.835938 404.589844 458.632812 198.914062 " fill-opacity="1" fill-rule="nonzero"/></g><path fill="#000000" d="M 311.125 535.667969 C 157.015625 498.148438 121.371094 401.386719 26.496094 423.101562 C 64.015625 268.988281 160.777344 233.351562 139.0625 138.476562 C 293.171875 175.996094 328.8125 272.753906 423.6875 251.039062 C 386.167969 405.148438 289.410156 440.792969 311.125 535.667969 Z M 435.339844 234.90625 C 331.199219 265.8125 293.996094 162.855469 122.925781 126.828125 C 153.832031 230.964844 50.875 268.167969 14.851562 439.234375 C 118.984375 408.332031 156.1875 511.289062 327.257812 547.3125 C 296.351562 443.179688 399.308594 405.976562 435.339844 234.90625 " fill-opacity="1" fill-rule="nonzero"/><path fill="#000000" d="M 282.957031 512.367188 C 160.945312 473.222656 127.515625 389.789062 49.792969 394.933594 C 88.941406 272.921875 172.378906 239.496094 167.234375 161.773438 C 289.242188 200.921875 322.667969 284.355469 400.390625 279.207031 C 361.242188 401.214844 277.808594 434.648438 282.957031 512.367188 Z M 412.039062 265.824219 C 325.976562 278.890625 291.542969 188.691406 153.84375 150.125 C 166.910156 236.1875 76.714844 270.621094 38.148438 408.320312 C 124.210938 395.253906 158.640625 485.453125 296.339844 524.019531 C 283.273438 437.953125 373.472656 403.519531 412.039062 265.824219 " fill-opacity="1" fill-rule="nonzero"/><path fill="#000000" d="M 260.46875 489.070312 C 167.109375 450.195312 135.554688 380.421875 73.09375 372.449219 C 111.96875 279.085938 181.742188 247.527344 189.714844 185.066406 C 283.078125 223.945312 314.636719 293.71875 377.097656 301.695312 C 338.21875 395.054688 268.441406 426.609375 260.46875 489.070312 Z M 388.742188 291.167969 C 318.890625 289.265625 286.386719 212.667969 179.191406 173.421875 C 177.285156 243.273438 100.691406 275.777344 61.441406 382.972656 C 131.292969 384.878906 163.804688 461.472656 270.996094 500.722656 C 272.902344 430.871094 349.496094 398.359375 388.742188 291.167969 " fill-opacity="1" fill-rule="nonzero"/><path fill="#000000" d="M 243.625 465.777344 C 174.734375 429.050781 145.464844 372.515625 96.390625 355.605469 C 133.113281 286.710938 189.648438 257.445312 206.558594 208.367188 C 275.457031 245.09375 304.71875 301.628906 353.796875 318.535156 C 317.074219 387.429688 260.535156 416.699219 243.625 465.777344 Z M 365.445312 310.804688 C 309.90625 297.816406 279.40625 234.746094 198.828125 196.71875 C 185.839844 252.257812 122.769531 282.757812 84.738281 363.332031 C 140.28125 376.324219 170.78125 439.394531 251.359375 477.421875 C 264.347656 421.882812 327.417969 391.382812 365.445312 310.804688 " fill-opacity="1" fill-rule="nonzero"/><path fill="#000000" d="M 232.082031 442.480469 C 183.246094 409.671875 157.152344 365.496094 119.683594 344.054688 C 152.492188 295.222656 196.667969 269.128906 218.109375 231.664062 C 266.9375 264.472656 293.035156 308.648438 330.5 330.082031 C 297.695312 378.917969 253.519531 405.011719 232.082031 442.480469 Z M 342.144531 324.941406 C 299.085938 305.21875 271.277344 254.992188 212.960938 220.015625 C 193.242188 263.074219 143.011719 290.886719 108.039062 349.203125 C 151.101562 368.921875 178.90625 419.152344 237.222656 454.125 C 256.941406 411.0625 307.175781 383.257812 342.144531 324.941406 " fill-opacity="1" fill-rule="nonzero"/><path fill="#000000" d="M 225.222656 419.179688 C 192.253906 391.851562 170.398438 358.972656 142.984375 337.203125 C 170.308594 304.234375 203.195312 282.371094 224.960938 254.960938 C 257.929688 282.289062 279.792969 315.171875 307.203125 336.941406 C 279.875 369.910156 246.992188 391.765625 225.222656 419.179688 Z M 318.851562 334.054688 C 286.59375 311.949219 262.480469 273.558594 222.074219 243.3125 C 199.972656 275.570312 161.582031 299.683594 131.335938 340.089844 C 163.597656 362.191406 187.707031 400.582031 228.109375 430.828125 C 250.210938 398.566406 288.605469 374.453125 318.851562 334.054688 " fill-opacity="1" fill-rule="nonzero"/><path fill="#000000" d="M 222.246094 395.882812 C 201.496094 375.328125 184.933594 352.683594 166.28125 334.21875 C 186.835938 313.476562 209.484375 296.910156 227.945312 278.257812 C 248.6875 298.8125 265.253906 321.460938 283.90625 339.917969 C 263.355469 360.667969 240.703125 377.230469 222.246094 395.882812 Z M 295.554688 338.859375 C 272.664062 318.332031 253.332031 290.691406 226.878906 266.609375 C 206.355469 289.5 178.714844 308.832031 154.628906 335.28125 C 177.523438 355.808594 196.859375 383.449219 223.304688 407.535156 C 243.832031 384.640625 271.46875 365.304688 295.554688 338.859375 " fill-opacity="1" fill-rule="nonzero"/><path fill="#000000" d="M 222.160156 372.585938 C 210.832031 359.769531 200.4375 346.484375 189.578125 334.136719 C 202.394531 322.804688 215.679688 312.417969 228.027344 301.554688 C 239.359375 314.371094 249.746094 327.660156 260.609375 340.003906 C 247.789062 351.332031 234.503906 361.726562 222.160156 372.585938 Z M 272.257812 340.257812 C 257.597656 324.5625 244.027344 306.691406 228.28125 289.90625 C 212.585938 304.566406 194.710938 318.136719 177.929688 333.882812 C 192.585938 349.582031 206.15625 367.453125 221.90625 384.234375 C 237.601562 369.578125 255.472656 356.007812 272.257812 340.257812 " fill-opacity="1" fill-rule="nonzero"/><path fill="#000000" d="M 223.867188 349.289062 C 220.1875 344.808594 216.539062 340.308594 212.871094 335.847656 C 217.355469 332.164062 221.855469 328.515625 226.316406 324.851562 C 230.003906 329.332031 233.648438 333.835938 237.3125 338.296875 C 232.832031 341.976562 228.332031 345.625 223.867188 349.289062 Z M 248.960938 339.300781 C 241.746094 330.746094 234.675781 321.902344 227.324219 313.203125 C 218.765625 320.414062 209.921875 327.484375 201.226562 334.839844 C 208.4375 343.398438 215.503906 352.238281 222.863281 360.9375 C 231.417969 353.726562 240.261719 346.65625 248.960938 339.300781 " fill-opacity="1" fill-rule="nonzero"/></svg>